<svg xmlns="http://www.w3.org/2000/svg" data-name="10" viewBox="0 0 314.06 56.32"><path d="M12.06 15.2a747.4 747.4 0 0 0 104.71 19.35 730.87 730.87 0 0 0 165.67-.39c1.53-.18 1.53-2.82 0-3a1252.68 1252.68 0 0 0-95.87-7.56 1250.8 1250.8 0 0 0-109.21.41c-4.09.2-8.21.39-12.23 1.45-6.7 1.77-13.17 6.54-15.68 14.95-.26.88.42 1.97 1.15 1.9a3736.49 3736.49 0 0 0 195.12-23.3 3868.9 3868.9 0 0 0 54.46-8.35c1.5-.24 1.52-3.24 0-3A3785.28 3785.28 0 0 1 50.6 39.31l1.15 1.9c2.31-7.74 8.73-11.62 14.8-13.05 3.75-.88 7.59-1 11.39-1.18s7.62-.34 11.43-.49a1248 1248 0 0 1 193.08 7.66v-3a732.3 732.3 0 0 1-211.41-6.16c-19.55-3.44-39-7.67-58.34-12.68-1.49-.39-2.13 2.5-.63 2.89Z" style="fill:#7797e8"/></svg>